STARTFONT 2.1
COMMENT                                                                                                                                                            .
COMMENT
FONT -FreeType-Untitled1-Medium-R-Normal--24-240-72-72-P-169-ISO10646-1
SIZE 24 72 72
FONTBOUNDINGBOX 24 22 0 -4
STARTPROPERTIES 19
FOUNDRY "FreeType"
FAMILY_NAME "Untitled1"
WEIGHT_NAME "Medium"
SLANT "R"
SETWIDTH_NAME "Normal"
ADD_STYLE_NAME ""
PIXEL_SIZE 24
POINT_SIZE 240
RESOLUTION_X 72
RESOLUTION_Y 72
SPACING "P"
AVERAGE_WIDTH 169
CHARSET_REGISTRY "ISO10646"
CHARSET_ENCODING "1"
FONT_ASCENT 18
FONT_DESCENT 4
COPYRIGHT "Copyright (c) 2023, 19254"
_TTF_FONTFILE "F:\Engcode\hw\HELLOW~3\259C2~1.FIR\HELLOW~1\font\hyd_hy.ttf"
_TTF_PSNAME "Untitled1"
ENDPROPERTIES
CHARS 10
STARTCHAR 0030
ENCODING 48
SWIDTH 1000 0
DWIDTH 24 0
BBX 17 17 4 -1
BITMAP
008000
018000
039800
079E00
0F8600
1D9300
399B80
719D80
E18D80
718D80
399D80
1D9B00
0F9700
078E00
039C00
019000
008000
ENDCHAR
STARTCHAR 0031
ENCODING 49
SWIDTH 1000 0
DWIDTH 24 0
BBX 24 22 0 -4
BITMAP
001800
001800
181818
0C0030
040020
007F00
01FF80
019FC0
030FC0
030FC0
F30FCF
6303C6
0300C0
0380C0
01C380
00FF00
007E00
0C0030
180038
101818
001800
001800
ENDCHAR
STARTCHAR 0032
ENCODING 50
SWIDTH 1000 0
DWIDTH 24 0
BBX 18 12 3 2
BITMAP
0C0000
1C0000
380000
7FFFC0
FFFFC0
000000
000000
000000
FFFF80
FFFF00
000600
000C00
ENDCHAR
STARTCHAR 0033
ENCODING 51
SWIDTH 1000 0
DWIDTH 24 0
BBX 14 18 5 -2
BITMAP
0C80
0CC0
0CE0
0CF0
0CF8
0CDC
0CCC
0CC0
0CC0
0CC0
0CC0
CCC0
6CC0
3CC0
1CC0
0CC0
04C0
00C0
ENDCHAR
STARTCHAR 0034
ENCODING 52
SWIDTH 1000 0
DWIDTH 24 0
BBX 14 14 5 0
BITMAP
FFE0
FFE0
C060
C07C
C07C
C06C
C06C
C06C
C06C
FFEC
FFEC
180C
1FFC
1FFC
ENDCHAR
STARTCHAR 0035
ENCODING 53
SWIDTH 1000 0
DWIDTH 24 0
BBX 16 14 4 0
BITMAP
3FFC
3FFC
300C
FFFF
FFFF
C003
D803
D803
C003
FFFF
FFFF
F00F
3FFC
3FFC
ENDCHAR
STARTCHAR 0036
ENCODING 54
SWIDTH 1000 0
DWIDTH 24 0
BBX 12 18 6 -2
BITMAP
FFF0
FFF0
C030
C030
C030
C030
C030
C030
C030
C030
C030
C030
C030
CF30
CF30
C030
FFF0
FFF0
ENDCHAR
STARTCHAR 0037
ENCODING 55
SWIDTH 1000 0
DWIDTH 24 0
BBX 18 12 3 1
BITMAP
FFFFC0
FFFFC0
C490C0
C490C0
FFFFC0
C924C0
C924C0
FFFFC0
C408C0
C408C0
FFFFC0
FFFFC0
ENDCHAR
STARTCHAR 0038
ENCODING 56
SWIDTH 1000 0
DWIDTH 24 0
BBX 14 14 5 0
BITMAP
FFF0
FFE4
C1CC
C39C
C73C
CE7C
DCFC
F9FC
F3EC
E75C
CF3C
9FFC
3FFC
7FFC
ENDCHAR
STARTCHAR 0039
ENCODING 57
SWIDTH 1000 0
DWIDTH 24 0
BBX 17 17 4 -2
BITMAP
07F000
1FFC00
3C9E00
700700
608300
E08380
C1C180
C1C180
E00380
C00180
C00180
600300
700700
380E00
1EBC00
0FF800
03E000
ENDCHAR
ENDFONT
