<?xml version="1.0" standalone="no"?><!DOCTYPE svg PUBLIC "-//W3C//DTD SVG 1.1//EN" "http://www.w3.org/Graphics/SVG/1.1/DTD/svg11.dtd"><svg t="1693477986576" class="icon" viewBox="0 0 1024 1024" version="1.1" xmlns="http://www.w3.org/2000/svg" p-id="2506" xmlns:xlink="http://www.w3.org/1999/xlink" width="20" height="20"><path d="M195.2 239.2c13.4 13.5 35.3 13.6 48.8 0.1l0.1-0.1 0.3 1c13.5-13.4 13.6-35.3 0.1-48.8l-0.1-0.1-62-65.9c-13.2-13.8-35.1-14.3-48.9-1-13.8 13.2-14.3 35.1-1 48.9l62.7 65.9z m637.4-0.2l65.6-63.8c13.5-13.4 13.6-35.3 0.1-48.8l-0.1-0.1-1.3-0.5c-13.4-13.5-35.3-13.6-48.8-0.1l-0.1 0.1-64.4 64.4c-13.5 13.5-13.5 35.4 0 48.9 13.6 13.4 35.5 13.4 49-0.1z m-672 273c0-19.1-15.5-34.6-34.6-34.6H34.6C15.5 477.4 0 492.9 0 512s15.5 34.6 34.6 34.6H126c19.1 0 34.6-15.5 34.6-34.6z m351.3-351.8h0.3c19.1 0 34.5-15.4 34.5-34.5V34.6C546.6 15.5 531.1 0 512 0s-34.6 15.5-34.6 34.6v91.1c0 19.1 15.4 34.5 34.5 34.5z m4.3 80.9c-149.4 0-270.9 121.5-270.9 270.9s121.5 270.9 270.9 270.9S787 661.4 787 512 665.5 241.1 516.2 241.1z m0 458.5c-103.4 0-187.6-84.1-187.6-187.6 0-97.9 75.5-178.5 171.3-186.8C493 343.9 489 364 489 385.1c0 95.1 77.1 172.2 172.2 172.2 13.1 0 25.7-1.6 38-4.3-18.8 83.7-93.7 146.6-183 146.6zM191.4 785l-65.6 63.8c-13.5 13.4-13.6 35.3-0.1 48.8l0.1 0.1 1.3 0.5c13.4 13.5 35.3 13.6 48.8 0.1l0.1-0.1 64.4-64.4c13.5-13.5 13.5-35.4 0-48.9-13.6-13.4-35.5-13.4-49 0.1z m798-307.6h-91.1c-19.1 0-34.6 15.5-34.6 34.6s15.5 34.6 34.6 34.6h91.1c19.1 0 34.6-15.5 34.6-34.6s-15.5-34.6-34.6-34.6zM828.8 784.8c-13.4-13.5-35.3-13.6-48.8-0.1l-0.1 0.1-0.3-1c-13.5 13.4-13.6 35.3-0.1 48.8l0.1 0.1 62 65.9c13.2 13.8 35.1 14.3 48.9 1 13.8-13.2 14.3-35.1 1-48.9l-62.7-65.9z m-316.7 79h-0.3c-19.1 0-34.5 15.4-34.5 34.5v91.1c0 19.1 15.5 34.6 34.6 34.6s34.6-15.5 34.6-34.6v-91.1c0.1-19.1-15.3-34.5-34.4-34.5z" fill="#040000" p-id="2507"></path></svg>