<?xml version="1.0" standalone="no"?><!DOCTYPE svg PUBLIC "-//W3C//DTD SVG 1.1//EN" "http://www.w3.org/Graphics/SVG/1.1/DTD/svg11.dtd"><svg t="1693478399969" class="icon" viewBox="0 0 1024 1024" version="1.1" xmlns="http://www.w3.org/2000/svg" p-id="8621" xmlns:xlink="http://www.w3.org/1999/xlink" width="20" height="20"><path d="M896 256v512H128V256h768zM298.666667 469.333333H213.333333v85.333334h85.333334v-85.333334z m128 0H341.333333v85.333334h85.333334v-85.333334z m128 0h-85.333334v85.333334h85.333334v-85.333334z m128 0h-85.333334v85.333334h85.333334v-85.333334z m128 0h-85.333334v85.333334h85.333334v-85.333334zM341.333333 341.333333H213.333333v85.333334h128V341.333333z m128 0H384v85.333334h85.333333V341.333333z m128 0h-85.333333v85.333334h85.333333V341.333333z m213.333334 0h-170.666667v85.333334h170.666667V341.333333zM341.333333 597.333333H213.333333v85.333334h128v-85.333334z m298.666667 0H384v85.333334h256v-85.333334z m170.666667 0h-128v85.333334h128v-85.333334z" fill="#444444" p-id="8622"></path></svg>