<?xml version="1.0" standalone="no"?><!DOCTYPE svg PUBLIC "-//W3C//DTD SVG 1.1//EN" "http://www.w3.org/Graphics/SVG/1.1/DTD/svg11.dtd"><svg t="1693477823868" class="icon" viewBox="0 0 1024 1024" version="1.1" xmlns="http://www.w3.org/2000/svg" p-id="1473" xmlns:xlink="http://www.w3.org/1999/xlink" width="20" height="20"><path d="M537.6 145.066667L554.666667 128v768l-85.333334-85.333333-298.666666-298.666667 64-64 302.933333-302.933333zM469.333333 341.333333l-166.4 170.666667 166.4 170.666667V341.333333z m170.666667-123.733333c145.066667 21.333333 256 145.066667 256 294.4s-110.933333 273.066667-256 294.4v-85.333333c98.133333-21.333333 170.666667-106.666667 170.666667-209.066667s-72.533333-187.733333-170.666667-209.066667v-85.333333z m0 128c72.533333 17.066667 128 85.333333 128 166.4s-55.466667 145.066667-128 166.4v-89.6c25.6-12.8 42.666667-42.666667 42.666667-72.533333s-17.066667-59.733333-42.666667-72.533334V345.6z" fill="#444444" p-id="1474"></path></svg>